<svg width="800" height="600" xmlns="http://www.w3.org/2000/svg">
  <!-- Background -->
  <rect width="800" height="600" fill="#F7F7F7"/>
  
  <!-- Title -->
  <text x="400" y="40" font-family="Arial" font-size="24" font-weight="bold" text-anchor="middle">LightCraft Light Visualization</text>
  
  <!-- Grid -->
  <g stroke="#E0E0E0" stroke-width="1">
    <!-- Vertical grid lines -->
    <line x1="100" y1="100" x2="100" y2="560"/>
    <line x1="150" y1="100" x2="150" y2="560"/>
    <line x1="200" y1="100" x2="200" y2="560"/>
    <line x1="250" y1="100" x2="250" y2="560"/>
    <line x1="300" y1="100" x2="300" y2="560"/>
    <line x1="350" y1="100" x2="350" y2="560"/>
    <line x1="400" y1="100" x2="400" y2="560"/>
    <line x1="450" y1="100" x2="450" y2="560"/>
    <line x1="500" y1="100" x2="500" y2="560"/>
    <line x1="550" y1="100" x2="550" y2="560"/>
    <line x1="600" y1="100" x2="600" y2="560"/>
    <line x1="650" y1="100" x2="650" y2="560"/>
    <line x1="700" y1="100" x2="700" y2="560"/>
    
    <!-- Horizontal grid lines -->
    <line x1="100" y1="100" x2="700" y2="100"/>
    <line x1="100" y1="150" x2="700" y2="150"/>
    <line x1="100" y1="200" x2="700" y2="200"/>
    <line x1="100" y1="250" x2="700" y2="250"/>
    <line x1="100" y1="300" x2="700" y2="300"/>
    <line x1="100" y1="350" x2="700" y2="350"/>
    <line x1="100" y1="400" x2="700" y2="400"/>
    <line x1="100" y1="450" x2="700" y2="450"/>
    <line x1="100" y1="500" x2="700" y2="500"/>
    <line x1="100" y1="550" x2="700" y2="550"/>
  </g>
  
  <!-- Light 1: Fresnel with narrow beam (spotlight) -->
  <g transform="translate(200, 250)">
    <!-- Light falloff (gradient) -->
    <circle cx="0" cy="0" r="50" fill="url(#fresnel-falloff)"/>
    
    <!-- Light beam -->
    <path d="M 15,0 L 150,-30 L 150,30 Z" fill="rgba(255,204,0,0.3)" stroke="none"/>
    
    <!-- Light body -->
    <circle cx="0" cy="0" r="15" fill="#FFCC00" stroke="#333333" stroke-width="1"/>
    
    <!-- Light label -->
    <text x="0" y="30" font-family="Arial" font-size="10" text-anchor="middle">650W Fresnel</text>
    <text x="0" y="42" font-family="Arial" font-size="8" text-anchor="middle" fill="#666666">650W 3200K</text>
    
    <!-- Handles for selected state -->
    <circle cx="0" cy="-50" r="4" fill="rgba(0,0,255,0.5)" stroke="blue" stroke-width="1"/> <!-- Rotation handle -->
    <circle cx="80" cy="15" r="4" fill="rgba(0,255,0,0.5)" stroke="green" stroke-width="1"/> <!-- Beam angle handle -->
    <circle cx="50" cy="0" r="4" fill="rgba(255,0,0,0.5)" stroke="red" stroke-width="1"/> <!-- Intensity handle -->
  </g>
  
  <!-- Light 2: HMI with medium beam -->
  <g transform="translate(500, 250)">
    <!-- Light falloff (gradient) -->
    <circle cx="0" cy="0" r="70" fill="url(#hmi-falloff)"/>
    
    <!-- Light beam -->
    <path d="M 18,0 L 170,-80 L 170,80 Z" fill="rgba(255,255,255,0.2)" stroke="none"/>
    
    <!-- Light body -->
    <circle cx="0" cy="0" r="18" fill="#FFFFFF" stroke="#333333" stroke-width="1"/>
    
    <!-- Light label -->
    <text x="0" y="33" font-family="Arial" font-size="10" text-anchor="middle">1.2K HMI</text>
    <text x="0" y="45" font-family="Arial" font-size="8" text-anchor="middle" fill="#666666">1200W 5600K</text>
  </g>
  
  <!-- Light 3: LED Panel (floodlight) -->
  <g transform="translate(200, 450)">
    <!-- Light falloff (gradient) -->
    <circle cx="0" cy="0" r="40" fill="url(#led-falloff)"/>
    
    <!-- Light body (rectangular for LED panel) -->
    <rect x="-15" y="-15" width="30" height="30" fill="#F5F5FF" stroke="#333333" stroke-width="1"/>
    
    <!-- Light label -->
    <text x="0" y="30" font-family="Arial" font-size="10" text-anchor="middle">1x1 LED Panel</text>
    <text x="0" y="42" font-family="Arial" font-size="8" text-anchor="middle" fill="#666666">75W 5600K</text>
  </g>
  
  <!-- Light 4: China Ball (omnidirectional) -->
  <g transform="translate(500, 450)">
    <!-- Light falloff (gradient - circular) -->
    <circle cx="0" cy="0" r="60" fill="url(#omni-falloff)"/>
    
    <!-- Light body -->
    <circle cx="0" cy="0" r="20" fill="rgba(255,227,183,0.9)" stroke="#333333" stroke-width="1"/>
    
    <!-- Light label -->
    <text x="0" y="33" font-family="Arial" font-size="10" text-anchor="middle">China Ball</text>
    <text x="0" y="45" font-family="Arial" font-size="8" text-anchor="middle" fill="#666666">150W 3200K</text>
  </g>
  
  <!-- Panel examples -->
  <g transform="translate(130, 80)">
    <rect x="0" y="0" width="540" height="50" fill="white" stroke="#CCCCCC" stroke-width="1" rx="5"/>
    <text x="10" y="20" font-family="Arial" font-size="12" font-weight="bold">Equipment Library Panel</text>
    <text x="10" y="38" font-family="Arial" font-size="10">Browse, search and drag industry-standard lights, cameras, and grip equipment</text>
    
    <rect x="220" y="15" width="60" height="25" fill="#FFD700" stroke="#CCCCCC" stroke-width="1" rx="3"/>
    <text x="250" y="30" font-family="Arial" font-size="8" text-anchor="middle">Fresnel</text>
    
    <rect x="290" y="15" width="60" height="25" fill="#FFFFFF" stroke="#CCCCCC" stroke-width="1" rx="3"/>
    <text x="320" y="30" font-family="Arial" font-size="8" text-anchor="middle">HMI</text>
    
    <rect x="360" y="15" width="60" height="25" fill="#F0F0FF" stroke="#CCCCCC" stroke-width="1" rx="3"/>
    <text x="390" y="30" font-family="Arial" font-size="8" text-anchor="middle">LED</text>
    
    <rect x="430" y="15" width="60" height="25" fill="#FFEBCD" stroke="#CCCCCC" stroke-width="1" rx="3"/>
    <text x="460" y="30" font-family="Arial" font-size="8" text-anchor="middle">Practical</text>
  </g>
  
  <!-- Properties panel example -->
  <g transform="translate(700, 150)">
    <rect x="-150" y="0" width="150" height="300" fill="white" stroke="#CCCCCC" stroke-width="1" rx="5"/>
    <text x="-75" y="20" font-family="Arial" font-size="12" font-weight="bold" text-anchor="middle">Properties Panel</text>
    
    <rect x="-140" y="35" width="130" height="18" fill="#EEEEEE" stroke="#CCCCCC" stroke-width="1" rx="3"/>
    <text x="-135" y="48" font-family="Arial" font-size="10">Name: 650W Fresnel</text>
    
    <rect x="-140" y="60" width="130" height="18" fill="#EEEEEE" stroke="#CCCCCC" stroke-width="1" rx="3"/>
    <text x="-135" y="73" font-family="Arial" font-size="10">Power: 650W</text>
    
    <rect x="-140" y="85" width="130" height="18" fill="#EEEEEE" stroke="#CCCCCC" stroke-width="1" rx="3"/>
    <text x="-135" y="98" font-family="Arial" font-size="10">Color Temp: 3200K</text>
    
    <rect x="-140" y="110" width="130" height="18" fill="#EEEEEE" stroke="#CCCCCC" stroke-width="1" rx="3"/>
    <text x="-135" y="123" font-family="Arial" font-size="10">Beam Angle: 45°</text>
    
    <rect x="-140" y="135" width="130" height="18" fill="#EEEEEE" stroke="#CCCCCC" stroke-width="1" rx="3"/>
    <text x="-135" y="148" font-family="Arial" font-size="10">Intensity: 100%</text>
    
    <rect x="-140" y="160" width="30" height="18" fill="#FFCC00" stroke="#CCCCCC" stroke-width="1"/>
    <text x="-105" y="173" font-family="Arial" font-size="10">Color</text>
  </g>
  
  <!-- Gradients for light falloff -->
  <defs>
    <radialGradient id="fresnel-falloff" cx="0" cy="0" r="50" fx="0" fy="0">
      <stop offset="0%" stop-color="rgba(255,204,0,0.5)"/>
      <stop offset="30%" stop-color="rgba(255,204,0,0.3)"/>
      <stop offset="70%" stop-color="rgba(255,204,0,0.1)"/>
      <stop offset="100%" stop-color="rgba(255,204,0,0)"/>
    </radialGradient>
    
    <radialGradient id="hmi-falloff" cx="0" cy="0" r="70" fx="0" fy="0">
      <stop offset="0%" stop-color="rgba(255,255,255,0.5)"/>
      <stop offset="30%" stop-color="rgba(255,255,255,0.3)"/>
      <stop offset="70%" stop-color="rgba(255,255,255,0.1)"/>
      <stop offset="100%" stop-color="rgba(255,255,255,0)"/>
    </radialGradient>
    
    <radialGradient id="led-falloff" cx="0" cy="0" r="40" fx="0" fy="0">
      <stop offset="0%" stop-color="rgba(245,245,255,0.5)"/>
      <stop offset="30%" stop-color="rgba(245,245,255,0.3)"/>
      <stop offset="70%" stop-color="rgba(245,245,255,0.1)"/>
      <stop offset="100%" stop-color="rgba(245,245,255,0)"/>
    </radialGradient>
    
    <radialGradient id="omni-falloff" cx="0" cy="0" r="60" fx="0" fy="0">
      <stop offset="0%" stop-color="rgba(255,227,183,0.6)"/>
      <stop offset="40%" stop-color="rgba(255,227,183,0.3)"/>
      <stop offset="70%" stop-color="rgba(255,227,183,0.1)"/>
      <stop offset="100%" stop-color="rgba(255,227,183,0)"/>
    </radialGradient>
  </defs>
  
  <!-- Legend -->
  <g transform="translate(400, 570)">
    <text x="0" y="0" font-family="Arial" font-size="10" text-anchor="middle">
      Visualization includes beam angle, intensity falloff, color temperature, and interactive handles
    </text>
  </g>
</svg>
